<svg width="1200" height="780" viewBox="0 0 1200 780" fill="none" xmlns="http://www.w3.org/2000/svg">
  <rect width="1200" height="780" rx="44" fill="#EFF8E2"/>
  <rect x="42" y="42" width="1116" height="696" rx="36" fill="#FDFCF8"/>
  <rect x="82" y="84" width="204" height="44" rx="22" fill="#D7F0B6"/>
  <text x="184" y="112" text-anchor="middle" font-family="Arial, sans-serif" font-size="22" font-weight="700" fill="#245331">PROYECTO + POST</text>
  <rect x="92" y="168" width="484" height="480" rx="32" fill="#C9D9BE"/>
  <rect x="624" y="168" width="484" height="480" rx="32" fill="#B6D886"/>
  <path d="M92 494C188 458 278 422 360 386C444 350 516 294 576 220V648H92V494Z" fill="#9DB77A"/>
  <path d="M624 434C720 390 818 348 912 300C992 258 1058 220 1108 186V648H624V434Z" fill="#6FAE49"/>
  <g fill="#5B7F3F">
    <circle cx="206" cy="342" r="28"/>
    <circle cx="282" cy="304" r="32"/>
    <circle cx="372" cy="328" r="30"/>
    <circle cx="772" cy="290" r="40"/>
    <circle cx="870" cy="244" r="48"/>
    <circle cx="972" cy="278" r="42"/>
  </g>
  <path d="M180 560H492" stroke="#A8774D" stroke-width="20" stroke-linecap="round"/>
  <path d="M720 554H1038" stroke="#A8774D" stroke-width="20" stroke-linecap="round"/>
  <text x="88" y="694" font-family="Arial, sans-serif" font-size="28" font-weight="700" fill="#204B2D">Mock de paisajismo con visual de obra inicial y resultado estabilizado.</text>
</svg>
